:version 1.10
:name ASF
:units
  mass 1
  length 1
  angle deg
:documentation
  ASF file generated by Kaydara
:root
  axis xyz
  order  tx ty tz rx ry rz
  position 0 0 0
  orientation 0 0 0
:bonedata
  begin
    id 1
    name RightUpLegDummy
    direction -0.718183 -0.695806 0.00816078
    length 4.904
    axis 0 0 0 xyz
  end
  begin
    id 2
    name RightUpLeg
    direction 3.53373e-006 -0.995788 0.0916898
    length 17.4976
    axis -3.49089 -0.000906625 0.000286804 xyz
    dof rx ry rz
  end
  begin
    id 3
    name RightLeg
    direction 0.00371092 -0.995096 -0.0988419
    length 16.5821
    axis 3.68512 0.0193738 -0.131023 xyz
    dof rx ry rz
  end
  begin
    id 4
    name RightFoot
    direction 0.00079151 -0.46099 0.887405
    length 3.77069
    axis 4.81691e-005 -0.120479 -0.188788 xyz
    dof rx ry rz
  end
  begin
    id 5
    name RightToes
    direction 0 0 0
    length 0
    axis 0 0 0 xyz
    dof rx ry rz
  end
  begin
    id 6
    name SpineDummy
    direction 8.3039e-015 1 4.57515e-016
    length 4.6813
    axis 0 0 0 xyz
  end
  begin
    id 7
    name Spine
    direction -3.15643e-008 0.999988 0.00495137
    length 10.1015
    axis -0.001389 0.000121418 2.40972e-006 xyz
    dof rx ry rz
  end
  begin
    id 8
    name Spine1
    direction 0 0 0
    length 0
    axis -0.001389 0.000121451 1.30017e-006 xyz
    dof rx ry rz
  end
  begin
    id 9
    name HEadDummy
    direction -1.99912e-008 0.999999 0.00127422
    length 3.43865
    axis -0.001389 0.000121451 1.30017e-006 xyz
  end
  begin
    id 10
    name HEad
    direction 0 0 0
    length 0
    axis 0 0 0 xyz
    dof rx ry rz
  end
  begin
    id 11
    name LeftShoulder1Dummy
    direction 0.998891 -0.0402509 -0.0244456
    length 3.5433
    axis -0.001389 0.000121451 1.30017e-006 xyz
  end
  begin
    id 12
    name LeftShoulder1
    direction 0.99951 -0.000327763 0.0313091
    length 4.05031
    axis -0.001389 0.000121451 1.30017e-006 xyz
    dof rx ry rz
  end
  begin
    id 13
    name LeftArm
    direction 0.998561 -0.00100056 -0.0536182
    length 10.3537
    axis -23.1894 0.134784 0.967509 xyz
    dof rx ry rz
  end
  begin
    id 14
    name LeftForeArm
    direction 0.998903 0.00866432 0.046012
    length 8.70632
    axis -9.91835 -0.06569 -0.177794 xyz
    dof rx ry rz
  end
  begin
    id 15
    name LeftHand
    direction 0 0 0
    length 0
    axis 0 0 0 xyz
    dof rx ry rz
  end
  begin
    id 16
    name RightShoulderDummy
    direction -0.998891 -0.0402509 -0.0244414
    length 3.5433
    axis -0.001389 0.000121451 1.30017e-006 xyz
  end
  begin
    id 17
    name RightShoulder
    direction -0.99951 -0.000327807 0.0313133
    length 4.05031
    axis 0.215806 0.000203643 -0.0068026 xyz
    dof rx ry rz
  end
  begin
    id 18
    name RightArm
    direction -0.998573 -0.000999564 -0.053403
    length 10.3947
    axis -23.2009 -0.134239 -0.964101 xyz
    dof rx ry rz
  end
  begin
    id 19
    name RightForeArm
    direction -0.998898 0.00868028 0.0461306
    length 8.68355
    axis -9.92322 0.0658061 0.178868 xyz
    dof rx ry rz
  end
  begin
    id 20
    name RightHand
    direction 0 0 0
    length 0
    axis 0 0 0 xyz
    dof rx ry rz
  end
  begin
    id 21
    name LeftUpLegDummy
    direction 0.718183 -0.695806 0.00816078
    length 4.904
    axis 0 0 0 xyz
  end
  begin
    id 22
    name LeftUpLeg
    direction -6.81752e-006 -0.995793 0.0916337
    length 17.4976
    axis -3.48766 0.00143442 -0.000524262 xyz
    dof rx ry rz
  end
  begin
    id 23
    name LeftLeg
    direction -0.00601358 -0.995091 -0.0987824
    length 16.5821
    axis 3.68178 -0.00654042 -0.000285133 xyz
    dof rx ry rz
  end
  begin
    id 24
    name LeftFoot
    direction -0.00417578 -0.460984 0.887399
    length 3.77069
    axis 1.87233e-006 4.66016e-005 -8.6538e-006 xyz
    dof rx ry rz
  end
  begin
    id 25
    name LeftToes
    direction 0 0 0
    length 0
    axis 0 0 0 xyz
    dof rx ry rz
  end
:hierarchy
  begin
    root RightUpLegDummy SpineDummy LeftUpLegDummy
    RightUpLegDummy RightUpLeg
    RightUpLeg RightLeg
    RightLeg RightFoot
    RightFoot RightToes
    SpineDummy Spine
    Spine Spine1
    Spine1 HEadDummy LeftShoulder1Dummy RightShoulderDummy
    HEadDummy HEad
    LeftShoulder1Dummy LeftShoulder1
    LeftShoulder1 LeftArm
    LeftArm LeftForeArm
    LeftForeArm LeftHand
    RightShoulderDummy RightShoulder
    RightShoulder RightArm
    RightArm RightForeArm
    RightForeArm RightHand
    LeftUpLegDummy LeftUpLeg
    LeftUpLeg LeftLeg
    LeftLeg LeftFoot
    LeftFoot LeftToes
  end

:SAMPLES-PER-SECOND 30
:FULLY-SPECIFIED
:DEGREES
112
root  -10.7548 39.8883 -7.32297 -43.0804 -86.5813 33.5789
RightUpLeg  -14.3517 -3.73358 -8.90141
RightLeg  62.1103 -3.09442 -6.8598
RightFoot  5.66134 -0.788097 5.52785
RightToes  0.000481921 0.542163 -0.142578
Spine  8.07322 -1.52312 -1.69128
Spine1  9.87355 -1.37673 -1.71492
HEad  -19.9734 0.249498 -8.19794
LeftShoulder1  10.741 -14.3259 -52.5467
LeftArm  -7.56149 0.0343366 -20.3626
LeftForeArm  24.4828 -7.43333 -7.06578
LeftHand  -0.25398 0.0180481 5.50724
RightShoulder  6.12789 9.96865 39.3792
RightArm  -17.4986 -19.3452 39.8959
RightForeArm  -20.6071 2.82939 6.0955
RightHand  -1.70521 4.11263 -20.9647
LeftUpLeg  0.0685371 10.6096 -6.95275
LeftLeg  17.2697 7.23625 1.64628
LeftFoot  -9.50264 -0.0550148 6.99854
LeftToes  1.06246e-005 4.65868e-005 -8.65514e-006
113
root  -11.9446 40.1262 -7.17443 -21.5282 -85.722 11.9573
RightUpLeg  -17.102 -4.88877 -6.85137
RightLeg  55.4605 -4.39122 -7.25424
RightFoot  4.0478 -0.683443 5.27142
RightToes  0.000481921 0.542163 -0.142578
Spine  8.34257 -2.09776 -2.4109
Spine1  9.82045 -2.7071 0.539549
HEad  -19.2892 0.413268 -7.24332
LeftShoulder1  10.4778 -14.1381 -51.8241
LeftArm  -8.45064 -10.1564 -20.0876
LeftForeArm  23.993 -11.0032 -6.70943
LeftHand  -0.25398 0.0180481 5.50724
RightShoulder  5.93857 9.81899 38.5079
RightArm  -16.169 -26.187 40.1064
RightForeArm  -20.7549 6.07474 6.94563
RightHand  -1.34969 2.70109 -19.3461
LeftUpLeg  3.52176 7.74582 -5.5137
LeftLeg  14.7136 8.39284 0.0627733
LeftFoot  -9.8167 -0.0355042 7.11069
LeftToes  1.06246e-005 4.65868e-005 -8.65514e-006
114
root  -13.1454 40.1825 -7.05044 -13.4487 -84.4523 3.76962
RightUpLeg  -18.6151 -6.7363 -5.39314
RightLeg  46.3493 -5.21393 -6.16736
RightFoot  2.49934 -0.72784 6.13264
RightToes  0.000481921 0.542163 -0.142578
Spine  9.16384 -2.67105 -4.28156
Spine1  9.11161 -4.24756 3.20664
HEad  -18.9058 0.990992 -6.31511
LeftShoulder1  10.1443 -13.9717 -50.6729
LeftArm  -8.69485 -18.9978 -19.612
LeftForeArm  21.5149 -15.1093 -5.63313
LeftHand  -0.25398 0.0180481 5.50724
RightShoulder  5.6497 9.51412 37.3781
RightArm  -13.5355 -32.1059 39.2889
RightForeArm  -17.3615 9.34649 7.73446
RightHand  -0.894783 1.65571 -14.9436
LeftUpLeg  6.26638 6.04391 -4.71422
LeftLeg  13.6051 8.55812 -0.912479
LeftFoot  -11.2747 0.062789 6.77401
LeftToes  1.06246e-005 4.65868e-005 -8.65514e-006
115
root  -14.407 40.0827 -6.94831 -14.3831 -83.3549 4.71864
RightUpLeg  -19.1576 -9.38244 -4.40575
RightLeg  35.5153 -4.91083 -4.0264
RightFoot  1.67483 -0.801861 7.11599
RightToes  0.000481921 0.542163 -0.142578
Spine  9.98042 -3.12015 -7.19687
Spine1  8.1454 -5.71671 6.08918
HEad  -18.5713 1.79924 -5.14213
LeftShoulder1  9.76828 -13.9983 -48.7285
LeftArm  -9.86314 -26.2501 -18.6918
LeftForeArm  19.6616 -19.4488 -4.37332
LeftHand  -0.25398 0.0180481 5.50724
RightShoulder  5.3942 9.24503 36.3232
RightArm  -9.30577 -36.5785 37.6543
RightForeArm  -14.5551 11.6945 8.08905
RightHand  -0.765183 2.03365 -12.177
LeftUpLeg  8.58316 5.29457 -4.57328
LeftLeg  13.3754 8.07086 -1.50881
LeftFoot  -13.3511 0.188884 6.14915
LeftToes  1.06246e-005 4.65868e-005 -8.65514e-006
116
root  -15.7421 39.9264 -6.82571 -18.2389 -82.7265 8.92561
RightUpLeg  -19.3135 -13.4832 -3.00821
RightLeg  23.9064 -2.98861 -1.84333
RightFoot  1.27472 -0.835772 7.62698
RightToes  0.000481921 0.542163 -0.142578
Spine  10.0683 -3.49071 -10.1715
Spine1  7.59511 -6.96462 8.87183
HEad  -18.0663 2.5552 -3.83698
LeftShoulder1  9.40375 -14.1829 -46.3825
LeftArm  -13.4998 -31.8449 -16.7124
LeftForeArm  20.7369 -23.9905 -3.98917
LeftHand  -0.25398 0.0180481 5.50724
RightShoulder  5.19452 9.06135 35.3733
RightArm  -5.52657 -39.4382 35.587
RightForeArm  -13.5496 12.6125 8.29635
RightHand  -0.830626 2.70424 -12.1383
LeftUpLeg  10.7884 4.87942 -4.89618
LeftLeg  12.8903 7.67471 -2.01691
LeftFoot  -14.9806 0.274364 5.77196
LeftToes  1.06246e-005 4.65868e-005 -8.65514e-006
117
root  -17.1545 39.7122 -6.6673 -22.422 -82.5569 13.5519
RightUpLeg  -19.1251 -16.7161 -1.70713
RightLeg  13.203 -1.98876 0.500395
RightFoot  0.965911 -0.851605 7.94669
RightToes  0.000481921 0.542163 -0.142578
Spine  9.63243 -3.81894 -12.4148
Spine1  7.46447 -7.94465 11.1403
HEad  -17.3349 3.04214 -2.75213
LeftShoulder1  9.14713 -14.3587 -44.6085
LeftArm  -18.902 -36.0883 -13.3357
LeftForeArm  23.8633 -28.3233 -4.81559
LeftHand  -0.25398 0.0180481 5.50724
RightShoulder  5.00639 8.88764 34.4492
RightArm  -4.77582 -40.8207 33.4585
RightForeArm  -12.3013 11.6561 8.46433
RightHand  -0.850098 2.70649 -12.4178
LeftUpLeg  13.0169 4.87104 -5.22311
LeftLeg  12.4952 7.33676 -2.41795
LeftFoot  -16.7883 0.340632 5.07695
LeftToes  1.06246e-005 4.65868e-005 -8.65514e-006
118
root  -18.6522 39.4083 -6.4918 -25.7585 -82.7054 16.9671
RightUpLeg  -17.9489 -11.7297 -3.29182
RightLeg  5.93906 -8.9873 3.86276
RightFoot  0.473562 -0.866072 8.39272
RightToes  0.000481921 0.542163 -0.142578
Spine  9.42474 -4.04775 -13.8265
Spine1  7.32286 -8.68106 12.9804
HEad  -16.5481 3.34661 -1.99128
LeftShoulder1  8.9424 -14.3523 -43.5752
LeftArm  -23.4198 -39.1272 -9.65881
LeftForeArm  25.859 -32.2272 -5.629
LeftHand  -0.25398 0.0180481 5.50724
RightShoulder  4.85565 8.7357 33.7273
RightArm  -7.25005 -40.9885 31.4106
RightForeArm  -10.8807 9.22463 8.15502
RightHand  -0.845202 2.65655 -12.4355
LeftUpLeg  15.5195 5.55195 -5.04031
LeftLeg  12.7726 6.49336 -2.67214
LeftFoot  -19.3162 0.358729 3.50226
LeftToes  1.06246e-005 4.65868e-005 -8.65514e-006
119
root  -20.2166 39.0767 -6.31587 -26.1225 -82.9214 17.1971
RightUpLeg  -17.5586 -9.70908 -3.01279
RightLeg  4.28129 -11.7463 4.92064
RightFoot  -0.25492 -0.858266 8.78597
RightToes  0.000481921 0.542163 -0.142578
Spine  9.38014 -4.30459 -14.6213
Spine1  7.15934 -9.44193 14.8388
HEad  -15.8173 3.66703 -1.50319
LeftShoulder1  8.64476 -14.1646 -42.5099
LeftArm  -27.1893 -40.5372 -7.35899
LeftForeArm  27.3681 -35.8064 -6.45668
LeftHand  -0.25398 0.0180481 5.50724
RightShoulder  4.77391 8.64064 33.3668
RightArm  -10.4198 -40.2853 29.5583
RightForeArm  -13.1932 6.89345 7.16454
RightHand  -1.05909 3.34981 -14.2492
LeftUpLeg  18.0335 7.02433 -4.13612
LeftLeg  13.7206 4.68295 -2.59722
LeftFoot  -21.4356 0.297393 1.88877
LeftToes  1.06246e-005 4.65868e-005 -8.65514e-006
120
root  -21.8628 38.7908 -6.13136 -21.1233 -82.908 12.4209
RightUpLeg  -18.2546 -11.7339 -0.709224
RightLeg  7.62189 -9.88161 3.55452
RightFoot  0.0117183 -0.706459 7.14375
RightToes  0.000481921 0.542163 -0.142578
Spine  8.65193 -4.86483 -14.717
Spine1  7.10763 -10.4344 16.7724
HEad  -14.898 3.91665 -1.52072
LeftShoulder1  8.30672 -13.9774 -41.1973
LeftArm  -29.3939 -40.0911 -7.14388
LeftForeArm  28.9678 -39.0866 -7.27196
LeftHand  -0.25398 0.0180481 5.50724
RightShoulder  4.66769 8.45031 33.1038
RightArm  -13.3579 -39.1959 28.1168
RightForeArm  -20.2931 5.84593 6.27273
RightHand  -1.61404 4.84194 -18.4543
LeftUpLeg  19.7838 9.15923 -2.59647
LeftLeg  15.5726 1.95908 -1.81252
LeftFoot  -22.4059 0.216254 0.843554
LeftToes  1.06246e-005 4.65868e-005 -8.65514e-006
121
root  -23.6138 38.5775 -5.92227 -10.3653 -82.7314 2.13753
RightUpLeg  -19.9082 -16.6401 3.32754
RightLeg  13.0948 -4.97935 1.21141
RightFoot  1.99649 -0.202266 1.95056
RightToes  0.000481921 0.542163 -0.142578
Spine  7.24007 -5.6313 -13.5863
Spine1  6.9814 -11.3956 18.5132
HEad  -13.529 4.00486 -2.35498
LeftShoulder1  8.13133 -13.8966 -40.4567
LeftArm  -29.2539 -38.2123 -8.38937
LeftForeArm  30.8818 -41.749 -7.9548
LeftHand  -0.25398 0.0180481 5.50724
RightShoulder  4.45098 8.02104 32.6778
RightArm  -16.0188 -37.9936 27.1458
RightForeArm  -28.8729 6.12036 5.82346
RightHand  -2.28112 6.67342 -22.1454
LeftUpLeg  20.7851 10.7277 -0.628082
LeftLeg  18.3664 -0.344088 -0.53712
LeftFoot  -22.6309 0.0398291 -0.945835
LeftToes  1.06246e-005 4.65868e-005 -8.65514e-006
122
root  -25.4323 38.4095 -5.7125 3.71555 -82.6153 -12.0312
RightUpLeg  -21.4916 -19.9547 7.25284
RightLeg  19.3482 -1.39226 -0.842907
RightFoot  3.50698 0.620583 -4.66341
RightToes  0.000481921 0.542163 -0.142578
Spine  6.2422 -6.18932 -11.39
Spine1  6.68548 -11.9875 19.9985
HEad  -12.0199 4.33578 -3.70378
LeftShoulder1  8.15681 -13.7919 -40.8625
LeftArm  -27.0575 -35.2135 -10.3492
LeftForeArm  33.0793 -43.8177 -8.48376
LeftHand  -0.25398 0.0180481 5.50724
RightShoulder  4.23687 7.55245 32.3803
RightArm  -18.2217 -36.2459 26.3517
RightForeArm  -34.8703 6.88038 5.55508
RightHand  -2.52891 7.69363 -22.5854
LeftUpLeg  21.403 10.2167 1.60852
LeftLeg  22.6867 -0.684949 0.107509
LeftFoot  -21.569 -0.277493 -4.61896
LeftToes  1.06246e-005 4.65868e-005 -8.65514e-006
123
root  -27.2325 38.2315 -5.55513 17.3604 -82.2674 -26.5435
RightUpLeg  -21.3475 -18.1725 8.51581
RightLeg  25.7853 -3.14202 -1.89541
RightFoot  1.80482 1.027 -8.79861
RightToes  0.000481921 0.542163 -0.142578
Spine  6.14142 -6.53586 -9.13409
Spine1  6.57631 -12.3523 21.2416
HEad  -11.0503 5.22526 -4.6908
LeftShoulder1  8.28776 -13.6112 -42.0441
LeftArm  -23.8946 -30.9633 -12.6365
LeftForeArm  35.4493 -45.8133 -9.01659
LeftHand  -0.25398 0.0180481 5.50724
RightShoulder  4.19503 7.37603 32.6146
RightArm  -20.0269 -33.3513 25.8318
RightForeArm  -37.5071 7.45678 5.3479
RightHand  -2.33626 7.66257 -20.9757
LeftUpLeg  20.7058 9.6077 4.73876
LeftLeg  30.3699 -1.02717 -0.325391
LeftFoot  -16.6243 -0.281189 -8.47699
LeftToes  1.06246e-005 4.65868e-005 -8.65514e-006
